# xmcd
#
# Track frame offsets: 
#        150
#        13686
#        30670
#        46802
#        61284
#        77173
#        94329
#        109628
#        125985
#        143214
#
# Disc length: 2050 seconds
#
# Revision: 0
# Processed by: cddbd v1.5.2PL0 Copyright (c) Steve Scherf et al.
# Submitted via: ExactAudioCopy v0.99pb3
#
DISCID=8508000a
DTITLE=Eastwood - Die Tryin'
DYEAR=2005
DGENRE=Texas Country
TTITLE0=Like Nothin' Happened
TTITLE1=Will We Still Be Lovers Tomorrow
TTITLE2=Die Tryin'
TTITLE3=Fallin' Down Again
TTITLE4=Rumors
TTITLE5=Nickel
TTITLE6=I Know I Should Break Up With You
TTITLE7=Can You Hear Me?
TTITLE8=Spinnin' My Wheels
TTITLE9=Homesick
EXTD=
EXTT0=
EXTT1=
EXTT2=
EXTT3=
EXTT4=
EXTT5=
EXTT6=
EXTT7=
EXTT8=
EXTT9=
PLAYORDER=
